<svg width="567" height="567" viewBox="0 0 567 567" fill="none" xmlns="http://www.w3.org/2000/svg">
<path d="M567 283.5C567 126.928 440.077 0 283.51 0C126.943 0 0 126.928 0 283.5C0 440.072 126.953 567 283.5 567C440.047 567 567 440.072 567 283.5Z" fill="#EC1B34"/>
<path d="M145.58 429C143.1 429 139.2 426.57 138.67 424.16C137.67 420.41 137.62 416.35 137.57 412.42V410.15C137.57 398.22 137.83 386.8 138.1 374.71V373.25C138.21 365.25 138.45 357.13 138.69 349.25C138.92 341.68 139.16 333.85 139.26 326.17C139.36 317.82 139.45 309.41 139.54 300.99C139.63 292.57 139.72 284.23 139.82 275.91C139.95 269.63 140.05 263.28 140.16 257.15C140.36 244.64 140.58 231.71 141.03 218.88C141.16 212.3 141.43 205.59 141.69 199.1C141.95 192.61 142.22 185.94 142.35 179.37C142.628 175.727 142.378 172.062 141.61 168.49C140.61 163.92 140.81 161.05 142.31 159.19C143.47 157.75 145.31 157.04 147.87 157.04C149.383 157.066 150.891 157.24 152.37 157.56C171.05 161.49 176.49 171.56 178.96 178.73C184.48 194.21 186.31 209 184.54 223.91C182.23 241.01 172.66 251.47 155.27 255.91H155.18C154.098 256.169 153.035 256.503 152 256.91L150.33 257.51C150.49 265.51 150.65 273.16 150.55 281.13C150.12 298.32 149.68 316.08 149.78 333.52C149.7 349.01 150.09 364.81 150.46 380.08C150.587 385.313 150.707 390.557 150.82 395.81C150.89 398.81 150.98 401.81 151.07 404.66C151.25 410.49 151.44 416.51 151.39 422.46V422.66C151.09 424.74 148.32 428.86 145.69 428.92L145.58 429ZM153.72 170.29C153.31 178.29 152.89 186.29 152.48 194.29C151.64 210.63 150.77 227.5 149.92 244.56L154.31 243.56C156.62 243.03 158.72 242.56 160.75 242.07C166.25 240.57 169.47 237.19 171.45 230.78C176.07 215.1 173.19 199.87 167.45 181.78C165.59 176.19 161.32 172.58 153.72 170.25" fill="white"/>
<path d="M210.49 427.62C209.576 427.644 208.668 427.478 207.821 427.134C206.974 426.79 206.208 426.274 205.57 425.62C204.57 424.62 203.45 422.7 203.57 419.36C203.73 401.49 203.57 383.24 203.23 365.18C203.02 355.09 202.74 344.84 202.46 334.92C202.18 325 201.9 314.92 201.7 305.02V305C201.4 290.76 201.09 276 201.06 261.53C201.14 254.47 201.37 247.32 201.6 240.4C201.9 231.2 202.21 221.68 202.17 212.34C202.12 199.7 201.36 186.84 200.64 174.41C200.447 171.243 200.263 168.073 200.09 164.9C199.922 162.878 200.288 160.847 201.15 159.01C201.712 158.013 202.542 157.193 203.546 156.644C204.55 156.094 205.687 155.836 206.83 155.9H207.03C212.25 155.9 212.56 160.17 212.74 162.71C212.74 163.12 212.8 163.52 212.85 163.91C213.18 166.96 213.51 170.08 213.85 173.19C214.19 176.3 214.53 179.56 214.85 182.68L215.03 184.37H214.54C213.96 204.37 213.61 224.53 213.28 244.06V246.32C213.18 257.09 213.38 267.94 213.57 278.44C213.69 285.44 213.82 292.64 213.87 299.74C213.87 307.68 213.8 315.82 213.7 323.68C213.6 331.54 213.5 339.68 213.53 347.59C213.62 351.71 214 356.05 214.38 360.24C214.63 363.02 214.88 365.9 215.05 368.69C215.21 373.02 215.38 377.31 215.56 381.59C216.07 394.28 216.56 407.41 216.68 420.34C216.533 422.048 215.855 423.667 214.74 424.97C213.97 425.97 212.42 427.6 210.74 427.64L210.49 427.62Z" fill="white"/>
<path d="M350 428.32C349.073 428.353 348.15 428.192 347.289 427.848C346.428 427.503 345.648 426.983 345 426.32C344 425.32 342.89 423.32 343.09 419.97C343.62 402.15 343.89 383.91 343.89 365.8C343.89 355.69 343.83 345.44 343.76 335.51C343.69 325.58 343.63 315.51 343.63 305.62C343.63 291.35 343.63 276.62 343.89 262.07C344.12 255.01 344.51 247.87 344.89 240.95C345.39 231.76 345.89 222.25 346.05 212.95C346.27 200.3 345.79 187.43 345.32 174.95C345.21 171.79 345.09 168.61 344.98 165.44C344.98 163.21 344.98 156.58 351.91 156.58C357.32 156.58 357.54 160.92 357.67 163.52C357.67 163.92 357.67 164.32 357.75 164.71C358.03 167.91 358.31 171.18 358.58 174.44C358.84 177.44 359.1 180.54 359.36 183.52L359.51 185.21H359C358 205.21 357.23 225.38 356.48 244.91L356.39 247.12C356.07 257.88 356.04 268.73 356.01 279.22C356.01 286.22 356.01 293.44 355.86 300.55C355.72 308.49 355.45 316.61 355.19 324.48C354.93 332.35 354.65 340.48 354.51 348.37C354.51 352.5 354.81 356.85 355.09 361.05C355.28 363.83 355.48 366.71 355.59 369.51C355.65 373.84 355.74 378.14 355.82 382.43C356.07 395.12 356.33 408.25 356.13 421.18C356.13 423.88 352.7 428.35 350 428.35" fill="white"/>
<path d="M411.57 428.32C407.812 428.248 404.062 427.947 400.34 427.42L396.34 426.96H396.24C395.43 426.83 394.69 426.69 393.94 426.55L391.73 426.16C384.91 425.47 381.49 425.16 379.54 422.86C377.59 420.56 377.72 417.18 377.99 410.32V409.52C378.26 403.52 378.4 397.35 378.53 391.42C378.66 385.49 378.8 379.31 379.07 373.24C379.17 368.45 379.37 363.5 379.56 358.72C379.85 351.49 380.14 344.02 380.14 336.72C380.26 328.88 380.22 320.98 380.14 313.33C380.14 303.14 380.05 292.6 380.36 282.14C380.5 273.27 380.91 264.25 381.3 255.53C381.69 246.81 382.11 237.81 382.24 228.97C382.4 217.54 382.24 205.91 382.14 194.67C382.06 187.17 381.97 179.41 381.97 171.77C381.938 170.765 381.841 169.763 381.68 168.77C381.35 166.43 381.01 164.01 382.33 162.42C384.834 159.426 388.385 157.499 392.26 157.03C398.14 156.7 404.02 156.67 409.71 156.63C413.47 156.63 417.34 156.63 421.09 156.48C423.5 156.48 429 156.48 429.41 162.48V162.58C429.41 167.33 426.49 170.05 421.41 170.05H393.14V239.57C394.9 239.39 396.69 239.25 398.44 239.12C402.969 238.888 407.472 238.303 411.91 237.37H411.97C412.7 237.217 413.444 237.136 414.19 237.13C415.56 237.044 416.912 237.473 417.982 238.334C419.051 239.194 419.761 240.423 419.97 241.78V241.96C420.269 244.086 419.712 246.244 418.42 247.96C417.825 248.633 417.096 249.173 416.28 249.547C415.463 249.921 414.578 250.119 413.68 250.13L395.68 250.94H395.61C392.97 250.94 392.32 251.59 392.32 254.22C392.19 262.86 391.98 271.55 391.78 279.94C391.58 288.33 391.38 296.94 391.25 305.56C390.98 318.97 390.78 332.56 390.58 345.78C390.38 359 390.18 372.7 389.9 386.17V410.05C389.9 412.56 389.9 413.32 393.42 413.33C399.77 413.06 406.57 414.68 412.92 416.33C414.92 416.89 416.01 418.94 417 420.74C417.38 421.43 417.74 422.07 418.09 422.58L419.09 423.97L417.6 424.83C416.999 425.202 416.427 425.62 415.89 426.08C414.64 427.08 413.22 428.26 411.46 428.26" fill="white"/>
<path d="M322.44 432.33C319.1 432.33 317.15 426.53 314.28 414.33C314.05 413.33 313.85 412.49 313.67 411.78C311.4 402.56 309.24 393.11 307.16 383.96C305.28 375.73 303.34 367.22 301.31 358.85C300.38 355.12 299.14 351.38 297.94 347.76C297.08 345.18 296.2 342.52 295.42 339.84C294.42 336.36 293.42 332.84 292.51 329.44C291.01 323.92 289.51 318.23 287.64 312.76C284.76 303.6 281.72 294.76 278.5 285.3C277 280.92 275.5 276.43 273.92 271.86C272.61 280.16 271.34 288.67 270.11 296.86C268.85 305.26 267.55 313.94 266.2 322.41C263.62 338.41 260.89 355.62 258.42 372.63C255.99 388.51 254.09 404.87 252.24 420.68V420.76C252.1 421.62 251.89 422.47 251.68 423.29C251.47 424.11 251.29 424.84 251.17 425.59V425.66C250.3 429.73 247.83 432.25 244.71 432.25C244.029 432.249 243.353 432.134 242.71 431.91H242.59C239.98 430.79 237.82 425.8 238.16 423.03V423C240.31 410.22 242.71 397.31 245.02 384.83C247.33 372.35 249.72 359.45 251.87 346.7C253.06 339.81 253.87 332.7 254.63 325.78C255.24 320.33 255.87 314.69 256.7 309.12C257.49 304.06 258.57 298.84 259.61 293.79C260.36 290.17 261.14 286.43 261.81 282.74C262.23 280.55 262.65 278.38 263.07 276.21C264.82 267.21 266.63 257.99 267.7 248.72C268.12 245.22 266.92 241.36 265.76 237.64C265.52 236.88 265.29 236.12 265.07 235.37L260 219.37C254.83 203.11 249.48 186.29 244.39 169.81C243.76 167.62 244.39 162.59 246.81 161.5C247.856 160.911 249.03 160.589 250.23 160.56C253.08 160.56 255.23 162.64 256.23 166.26C257.8 172.12 259.56 178 261.23 183.69C262.71 188.63 264.23 193.74 265.61 198.76C267.68 205.64 269.55 212.76 271.37 219.64C272.28 223.09 273.22 226.64 274.17 230.15C275.85 222.27 277.69 213.88 279.78 205.51C283.53 191.83 287.6 177.99 291.88 164.34C292.45 162.34 295.88 161.04 297.56 161.04C297.792 161.038 298.023 161.061 298.25 161.11L298.52 161.19C300.35 161.92 302.87 164.98 302.42 167.24C301.64 171.72 300.42 176.17 299.22 180.48C298.76 182.15 298.28 183.87 297.83 185.59C296.35 190.84 294.99 196.16 293.67 201.3C292.35 206.44 290.98 211.8 289.5 217.05C287.38 224.73 285.19 232.67 282.5 240.26C280.724 244.386 280.451 249.004 281.73 253.31C283.88 260.68 285.8 268.31 287.65 275.62C289.5 282.93 291.4 290.5 293.55 297.87C294.55 301.45 295.94 304.87 297.39 308.57C299.01 312.454 300.418 316.424 301.61 320.46C304.47 330.67 307.29 341.17 310.02 351.32C312.18 359.32 314.41 367.63 316.65 375.8C319.27 385.89 322.19 395.99 325.01 405.8C326.26 410.15 327.51 414.48 328.74 418.8C329.306 421.365 329.058 424.043 328.03 426.46C326.89 429.46 325.11 431.6 323.17 432.25H323.06C322.85 432.298 322.635 432.322 322.42 432.32" fill="white"/>
<path d="M206.56 150.5C208.097 150.502 209.6 150.048 210.88 149.195C212.159 148.343 213.156 147.13 213.746 145.71C214.335 144.291 214.491 142.728 214.192 141.22C213.893 139.712 213.154 138.327 212.068 137.239C210.981 136.152 209.597 135.411 208.089 135.11C206.582 134.809 205.019 134.963 203.599 135.551C202.179 136.138 200.964 137.134 200.11 138.412C199.256 139.69 198.8 141.193 198.8 142.73C198.818 144.783 199.641 146.748 201.092 148.201C202.543 149.654 204.507 150.479 206.56 150.5Z" fill="white"/>
<path d="M351.41 150.5C352.947 150.5 354.449 150.044 355.727 149.19C357.005 148.337 358 147.123 358.589 145.703C359.177 144.284 359.331 142.721 359.031 141.214C358.731 139.707 357.991 138.322 356.904 137.236C355.818 136.149 354.433 135.409 352.926 135.109C351.419 134.809 349.856 134.963 348.437 135.551C347.017 136.14 345.803 137.135 344.949 138.413C344.096 139.691 343.64 141.193 343.64 142.73C343.656 144.786 344.479 146.753 345.933 148.207C347.387 149.661 349.354 150.484 351.41 150.5Z" fill="white"/>
</svg>
